# xmcd CD database file
#
# Track frame offsets:
#	150
#	11022
#	19580
#	30775
#	39202
#	55185
#	65362
#	74707
#	87910
#	100270
#	107187
#	117677
#
# Disc length: 1744 seconds
#
# Revision: 0
# Processed by: cddbd v1.5.1PL0 Copyright (c) Steve Scherf et al.
# Submitted via: CDex 1.50
#
DISCID=9806ce0c
DTITLE=Waylong Jennings - Nashville Rebel
DYEAR=1900
DGENRE=Country
TTITLE0=Silver Ribbons
TTITLE1=Nashville Bum
TTITLE2=Green River
TTITLE3=Nashville Rebel
TTITLE4=I'm a Long Way from Home
TTITLE5=Tennessee
TTITLE6=Norwegian Wood
TTITLE7=Hoodlum (Instrumental)
TTITLE8=Spanish Penthouse (Instrumental)
TTITLE9=Lang's Theme (Instrumental)
TTITLE10=Rush Street Blues (Instrumental)
TTITLE11=Lang's Mansion (Instrumental)
EXTD=
EXTT0=
EXTT1=
EXTT2=
EXTT3=
EXTT4=
EXTT5=
EXTT6=
EXTT7=
EXTT8=
EXTT9=
EXTT10=
EXTT11=
PLAYORDER=
